<svg
  xmlns="http://www.w3.org/2000/svg"
  width="24"
  height="24"
  viewBox="0 0 24 24"
  fill="none"
  stroke="#4482B7"
  stroke-width="1.75"
  stroke-linecap="round"
  stroke-linejoin="round"
  aria-hidden="true"
>
  <!-- Contorno da orelha -->
  <path d="M8.8 12.8c0-3.2 2.1-5.8 5.4-5.8 3.2 0 5.6 2.5 5.6 5.7 0 2.3-1.1 3.9-2.4 5.1-.9.8-1.8 1.4-1.8 2.6 0 .9-.8 1.6-1.7 1.6-1.2 0-2.2-1-2.2-2.2"/>

  <!-- Curva interna (atenção / escuta ativa) -->
  <path d="M11 13.1c.1-1.6 1.2-2.8 2.8-2.8 1.6 0 2.8 1.2 2.8 2.7 0 1.2-.6 2-1.6 2.7-.6.5-1.2 1-1.2 1.8"/>
</svg>
